<svg width="14" height="16" viewBox="0 0 14 16" fill="none" xmlns="http://www.w3.org/2000/svg">
<path d="M12.5417 0C12.7039 0 12.859 0.031725 13.007 0.0951751C13.2397 0.186825 13.4248 0.331351 13.5622 0.528751C13.6997 0.726151 13.7684 0.944701 13.7684 1.1844V14.8156C13.7684 15.0553 13.6997 15.2738 13.5622 15.4712C13.4248 15.6686 13.2397 15.8132 13.007 15.9048C12.8731 15.9612 12.718 15.9894 12.5417 15.9894C12.2033 15.9894 11.9108 15.8766 11.664 15.651L7.00043 11.1672L2.33685 15.651C2.08305 15.8837 1.79047 16 1.45912 16C1.29697 16 1.14187 15.9683 0.993823 15.9048C0.761173 15.8132 0.57611 15.6686 0.438635 15.4712C0.301159 15.2738 0.232422 15.0553 0.232422 14.8156V1.1844C0.232422 0.944701 0.301159 0.726151 0.438635 0.528751C0.57611 0.331351 0.761173 0.186825 0.993823 0.0951751C1.14187 0.031725 1.29697 0 1.45912 0H12.5417Z" fill="#5A698F"/>
</svg>
