<svg width="17" height="16" viewBox="0 0 17 16" fill="none" xmlns="http://www.w3.org/2000/svg">
<path fill-rule="evenodd" clip-rule="evenodd" d="M13.7969 0H2.66798C1.32286 0 0.232422 1.09044 0.232422 2.43556V13.5644C0.232422 14.9096 1.32286 16 2.66798 16H13.7969C14.4428 16 15.0623 15.7434 15.5191 15.2866C15.9758 14.8299 16.2324 14.2104 16.2324 13.5644V2.43556C16.2324 1.78961 15.9758 1.17011 15.5191 0.713358C15.0623 0.256602 14.4428 0 13.7969 0ZM3.43242 7.2H1.83242V5.6H3.43242V7.2ZM3.43242 8.8H1.83242V10.4H3.43242V8.8ZM14.6324 7.2H13.0324V5.6H14.6324V7.2ZM14.6324 8.8H13.0324V10.4H14.6324V8.8ZM14.6324 2.192V3.2H13.0324V1.6H14.0404C14.1974 1.6 14.348 1.66237 14.459 1.77339C14.5701 1.88441 14.6324 2.03499 14.6324 2.192ZM3.43242 1.6H2.42442C2.26741 1.6 2.11684 1.66237 2.00581 1.77339C1.89479 1.88441 1.83242 2.03499 1.83242 2.192V3.2H3.43242V1.6ZM1.83242 13.808V12.8H3.43242V14.4H2.42442C2.26741 14.4 2.11684 14.3376 2.00581 14.2266C1.89479 14.1156 1.83242 13.965 1.83242 13.808ZM13.0324 14.4H14.0404C14.3674 14.4 14.6324 14.135 14.6324 13.808V12.8H13.0324V14.4Z" fill="#5A698F"/>
</svg>
