<svg width="17" height="16" viewBox="0 0 17 16" fill="none" xmlns="http://www.w3.org/2000/svg">
<path fill-rule="evenodd" clip-rule="evenodd" d="M1.03242 0H6.63242C7.11242 0 7.43242 0.32 7.43242 0.8V6.4C7.43242 6.88 7.11242 7.2 6.63242 7.2H1.03242C0.552422 7.2 0.232422 6.88 0.232422 6.4V0.8C0.232422 0.32 0.552422 0 1.03242 0ZM1.03242 8.8H6.63242C7.11242 8.8 7.43242 9.12 7.43242 9.6V15.2C7.43242 15.68 7.11242 16 6.63242 16H1.03242C0.552422 16 0.232422 15.68 0.232422 15.2V9.6C0.232422 9.12 0.552422 8.8 1.03242 8.8ZM15.4324 0H9.83242C9.35242 0 9.03242 0.32 9.03242 0.8V6.4C9.03242 6.88 9.35242 7.2 9.83242 7.2H15.4324C15.9124 7.2 16.2324 6.88 16.2324 6.4V0.8C16.2324 0.32 15.9124 0 15.4324 0ZM9.83242 8.8H15.4324C15.9124 8.8 16.2324 9.12 16.2324 9.6V15.2C16.2324 15.68 15.9124 16 15.4324 16H9.83242C9.35242 16 9.03242 15.68 9.03242 15.2V9.6C9.03242 9.12 9.35242 8.8 9.83242 8.8Z" fill="#5A698F"/>
</svg>
